<?xml version="1.0" encoding="UTF-8" standalone="no"?>
<!-- Created with Inkscape (http://www.inkscape.org/) -->

<svg
   xmlns:dc="http://purl.org/dc/elements/1.1/"
   xmlns:cc="http://creativecommons.org/ns#"
   xmlns:rdf="http://www.w3.org/1999/02/22-rdf-syntax-ns#"
   xmlns:svg="http://www.w3.org/2000/svg"
   xmlns="http://www.w3.org/2000/svg"
   xmlns:sodipodi="http://sodipodi.sourceforge.net/DTD/sodipodi-0.dtd"
   xmlns:inkscape="http://www.inkscape.org/namespaces/inkscape"
   width="59.999989"
   height="60"
   id="svg2"
   version="1.1"
   inkscape:version="0.91 r13725"
   sodipodi:docname="icon.svg"
   inkscape:export-filename="/home/jandanielr/Documents/photon/static/icon.png"
   inkscape:export-xdpi="1200"
   inkscape:export-ydpi="1200">
  <defs
     id="defs4" />
  <sodipodi:namedview
     id="base"
     pagecolor="#ffffff"
     bordercolor="#666666"
     borderopacity="1.0"
     inkscape:pageopacity="0.0"
     inkscape:pageshadow="2"
     inkscape:zoom="2.8"
     inkscape:cx="-55.37092"
     inkscape:cy="29.851245"
     inkscape:document-units="px"
     inkscape:current-layer="layer1"
     showgrid="false"
     fit-margin-top="5"
     fit-margin-right="5"
     fit-margin-bottom="5"
     fit-margin-left="5"
     inkscape:window-width="1366"
     inkscape:window-height="744"
     inkscape:window-x="0"
     inkscape:window-y="24"
     inkscape:window-maximized="1" />
  <metadata
     id="metadata7">
    <rdf:RDF>
      <cc:Work
         rdf:about="">
        <dc:format>image/svg+xml</dc:format>
        <dc:type
           rdf:resource="http://purl.org/dc/dcmitype/StillImage" />
        <dc:title />
      </cc:Work>
    </rdf:RDF>
  </metadata>
  <g
     inkscape:label="Layer 1"
     inkscape:groupmode="layer"
     id="layer1"
     transform="translate(-325.46265,-164.76193)">
    <g
       id="g11329"
       transform="matrix(1.6556291,0,0,1.6556291,580.25574,-233.5577)">
      <path
         d="m -135.77503,243.70506 a 15,15 0 0 1 8.81678,2.86474 l -8.81678,12.13526 z"
         id="path860"
         inkscape:connector-curvature="0"
         style="fill:#b8e186;stroke:#ffffff;stroke-width:0.2" />
      <path
         d="m -126.95825,246.5698 a 15,15 0 0 1 5.44907,7.50001 l -14.26585,4.63525 z"
         id="path862"
         inkscape:connector-curvature="0"
         style="fill:#7fbc41;stroke:#ffffff;stroke-width:0.2" />
      <path
         d="m -121.50918,254.06981 a 15,15 0 0 1 0,9.2705 l -14.26585,-4.63525 z"
         id="path864"
         inkscape:connector-curvature="0"
         style="fill:#fde0ef;stroke:#ffffff;stroke-width:0.2" />
      <path
         d="m -121.50918,263.34031 a 15,15 0 0 1 -5.44907,7.50001 l -8.81678,-12.13526 z"
         id="path866"
         inkscape:connector-curvature="0"
         style="fill:#f1b6da;stroke:#ffffff;stroke-width:0.2" />
      <path
         d="m -126.95825,270.84032 a 15,15 0 0 1 -8.81678,2.86474 l 0,-15 z"
         id="path868"
         inkscape:connector-curvature="0"
         style="fill:#fde0ef;stroke:#ffffff;stroke-width:0.2" />
      <path
         d="m -135.77503,273.70506 a 15,15 0 0 1 -8.81678,-2.86474 l 8.81678,-12.13526 z"
         id="path870"
         inkscape:connector-curvature="0"
         style="fill:#b8e186;stroke:#ffffff;stroke-width:0.2" />
      <path
         d="m -144.59181,270.84032 a 15,15 0 0 1 -5.44907,-7.50001 l 14.26585,-4.63525 z"
         id="path872"
         inkscape:connector-curvature="0"
         style="fill:#f1b6da;stroke:#ffffff;stroke-width:0.2" />
      <path
         d="m -150.04088,263.34031 a 15,15 0 0 1 0,-9.2705 l 14.26585,4.63525 z"
         id="path874"
         inkscape:connector-curvature="0"
         style="fill:#fde0ef;stroke:#ffffff;stroke-width:0.2" />
      <path
         d="m -150.04088,254.06981 a 15,15 0 0 1 5.44907,-7.50001 l 8.81678,12.13526 z"
         id="path876"
         inkscape:connector-curvature="0"
         style="fill:#f1b6da;stroke:#ffffff;stroke-width:0.2" />
      <path
         d="m -144.59181,246.5698 a 15,15 0 0 1 8.81678,-2.86474 l 0,15 z"
         id="path878"
         inkscape:connector-curvature="0"
         style="fill:#c51b7d;stroke:#ffffff;stroke-width:0.2" />
    </g>
  </g>
</svg>
