<?xml version="1.0" encoding="UTF-8" standalone="no"?>
<!-- Created with Inkscape (http://www.inkscape.org/) -->

<svg
   xmlns:dc="http://purl.org/dc/elements/1.1/"
   xmlns:cc="http://creativecommons.org/ns#"
   xmlns:rdf="http://www.w3.org/1999/02/22-rdf-syntax-ns#"
   xmlns:svg="http://www.w3.org/2000/svg"
   xmlns="http://www.w3.org/2000/svg"
   xmlns:sodipodi="http://sodipodi.sourceforge.net/DTD/sodipodi-0.dtd"
   xmlns:inkscape="http://www.inkscape.org/namespaces/inkscape"
   width="307.46762"
   height="90.284904"
   id="svg2"
   version="1.1"
   inkscape:version="0.48.4 r9939"
   sodipodi:docname="New document 1">
  <defs
     id="defs4" />
  <sodipodi:namedview
     id="base"
     pagecolor="#ffffff"
     bordercolor="#666666"
     borderopacity="1.0"
     inkscape:pageopacity="0.0"
     inkscape:pageshadow="2"
     inkscape:zoom="0.35"
     inkscape:cx="743.42282"
     inkscape:cy="91.602362"
     inkscape:document-units="px"
     inkscape:current-layer="layer1"
     showgrid="false"
     fit-margin-top="5"
     fit-margin-right="5"
     fit-margin-bottom="5"
     fit-margin-left="5"
     inkscape:window-width="1920"
     inkscape:window-height="1176"
     inkscape:window-x="0"
     inkscape:window-y="24"
     inkscape:window-maximized="1" />
  <metadata
     id="metadata7">
    <rdf:RDF>
      <cc:Work
         rdf:about="">
        <dc:format>image/svg+xml</dc:format>
        <dc:type
           rdf:resource="http://purl.org/dc/dcmitype/StillImage" />
        <dc:title></dc:title>
      </cc:Work>
    </rdf:RDF>
  </metadata>
  <g
     inkscape:label="Layer 1"
     inkscape:groupmode="layer"
     id="layer1"
     transform="translate(-125.71922,-135.46916)">
    <path
       style="fill:#c8b7b7;stroke:#808080;stroke-width:1.70000005;stroke-linecap:butt;stroke-linejoin:miter;stroke-miterlimit:4;stroke-opacity:0.79452054;stroke-dasharray:none"
       d="m 265.03877,195.75282 90.40865,-1.19955"
       id="path11341"
       inkscape:connector-curvature="0"
       sodipodi:nodetypes="cc" />
    <g
       id="g11329"
       transform="matrix(1.6556291,0,0,1.6556291,580.25574,-233.5577)">
      <path
         d="m -135.77503,243.70506 a 15,15 0 0 1 8.81678,2.86474 l -8.81678,12.13526 z"
         id="path860"
         inkscape:connector-curvature="0"
         style="fill:#b8e186;stroke:#ffffff;stroke-width:0.2" />
      <path
         d="m -126.95825,246.5698 a 15,15 0 0 1 5.44907,7.50001 l -14.26585,4.63525 z"
         id="path862"
         inkscape:connector-curvature="0"
         style="fill:#7fbc41;stroke:#ffffff;stroke-width:0.2" />
      <path
         d="m -121.50918,254.06981 a 15,15 0 0 1 0,9.2705 l -14.26585,-4.63525 z"
         id="path864"
         inkscape:connector-curvature="0"
         style="fill:#fde0ef;stroke:#ffffff;stroke-width:0.2" />
      <path
         d="m -121.50918,263.34031 a 15,15 0 0 1 -5.44907,7.50001 l -8.81678,-12.13526 z"
         id="path866"
         inkscape:connector-curvature="0"
         style="fill:#f1b6da;stroke:#ffffff;stroke-width:0.2" />
      <path
         d="m -126.95825,270.84032 a 15,15 0 0 1 -8.81678,2.86474 l 0,-15 z"
         id="path868"
         inkscape:connector-curvature="0"
         style="fill:#fde0ef;stroke:#ffffff;stroke-width:0.2" />
      <path
         d="m -135.77503,273.70506 a 15,15 0 0 1 -8.81678,-2.86474 l 8.81678,-12.13526 z"
         id="path870"
         inkscape:connector-curvature="0"
         style="fill:#b8e186;stroke:#ffffff;stroke-width:0.2" />
      <path
         d="m -144.59181,270.84032 a 15,15 0 0 1 -5.44907,-7.50001 l 14.26585,-4.63525 z"
         id="path872"
         inkscape:connector-curvature="0"
         style="fill:#f1b6da;stroke:#ffffff;stroke-width:0.2" />
      <path
         d="m -150.04088,263.34031 a 15,15 0 0 1 0,-9.2705 l 14.26585,4.63525 z"
         id="path874"
         inkscape:connector-curvature="0"
         style="fill:#fde0ef;stroke:#ffffff;stroke-width:0.2" />
      <path
         d="m -150.04088,254.06981 a 15,15 0 0 1 5.44907,-7.50001 l 8.81678,12.13526 z"
         id="path876"
         inkscape:connector-curvature="0"
         style="fill:#f1b6da;stroke:#ffffff;stroke-width:0.2" />
      <path
         d="m -144.59181,246.5698 a 15,15 0 0 1 8.81678,-2.86474 l 0,15 z"
         id="path878"
         inkscape:connector-curvature="0"
         style="fill:#c51b7d;stroke:#ffffff;stroke-width:0.2" />
    </g>
    <g
       id="g11303"
       transform="matrix(1.0185826,0,0,1.0185826,-6.5178349,-4.0994644)">
      <g
         id="g11310"
         transform="matrix(1.614731,0,0,1.614731,-161.8318,-263.65768)">
        <path
           style="fill:#e6f5d0;stroke:#ffffff;stroke-width:0.40000001"
           inkscape:connector-curvature="0"
           id="path1110"
           d="m 265.31033,269.70468 a 15,15 0 0 1 14.26585,10.36475 l -14.26585,4.63525 z" />
        <path
           style="fill:#c51b7d;stroke:#ffffff;stroke-width:0.40000001"
           inkscape:connector-curvature="0"
           id="path1112"
           d="m 279.57618,280.06943 a 15,15 0 0 1 -5.44907,16.7705 l -8.81678,-12.13525 z" />
        <path
           style="fill:#de77ae;stroke:#ffffff;stroke-width:0.40000001"
           inkscape:connector-curvature="0"
           id="path1114"
           d="m 274.12711,296.83993 a 15,15 0 0 1 -17.63356,0 l 8.81678,-12.13525 z" />
        <path
           style="fill:#c51b7d;stroke:#ffffff;stroke-width:0.40000001"
           inkscape:connector-curvature="0"
           id="path1116"
           d="m 256.49355,296.83993 a 15,15 0 0 1 -5.44907,-16.7705 l 14.26585,4.63525 z" />
        <path
           style="fill:#8e0152;stroke:#ffffff;stroke-width:0.40000001"
           inkscape:connector-curvature="0"
           id="path1118"
           d="m 251.04448,280.06943 a 15,15 0 0 1 14.26585,-10.36475 l 0,15 z" />
      </g>
    </g>
    <text
       xml:space="preserve"
       style="font-size:102.01385498px;font-style:normal;font-variant:normal;font-weight:normal;font-stretch:normal;text-align:start;line-height:125%;letter-spacing:0px;word-spacing:0px;writing-mode:lr-tb;text-anchor:start;fill:#000000;fill-opacity:1;stroke:none;font-family:Ubuntu;-inkscape-font-specification:Ubuntu"
       x="121.94603"
       y="219.63191"
       id="text10431"
       sodipodi:linespacing="125%"><tspan
         sodipodi:role="line"
         id="tspan10433"
         x="121.94603"
         y="219.63191">Ph  t  n</tspan></text>
  </g>
</svg>
